<svg width="400" height="300" xmlns="http://www.w3.org/2000/svg">
  <defs>
    <linearGradient id="bg3" x1="0%" y1="0%" x2="100%" y2="100%">
      <stop offset="0%" style="stop-color:#10b981;stop-opacity:1" />
      <stop offset="100%" style="stop-color:#059669;stop-opacity:1" />
    </linearGradient>
  </defs>
  <rect width="400" height="300" fill="url(#bg3)"/>
  <circle cx="200" cy="120" r="40" fill="#fbbf24"/>
  <circle cx="185" cy="110" r="3" fill="#1f2937"/>
  <circle cx="215" cy="110" r="3" fill="#1f2937"/>
  <path d="M 190 125 Q 200 135 210 125" stroke="#1f2937" stroke-width="2" fill="none"/>
  <polygon points="180,80 220,80 210,60 190,60" fill="#3b82f6"/>
  <rect x="190" y="160" width="20" height="40" fill="#8b5cf6"/>
  <rect x="150" y="210" width="100" height="30" fill="#374151"/>
  <rect x="155" y="215" width="8" height="20" fill="white"/>
  <rect x="168" y="215" width="8" height="20" fill="white"/>
  <rect x="181" y="215" width="8" height="20" fill="white"/>
  <rect x="194" y="215" width="8" height="20" fill="white"/>
  <rect x="207" y="215" width="8" height="20" fill="white"/>
  <rect x="220" y="215" width="8" height="20" fill="white"/>
  <rect x="233" y="215" width="8" height="20" fill="white"/>
  <text x="200" y="270" text-anchor="middle" fill="white" font-size="20" font-family="Arial">🎹 PIANO GNOME</text>
</svg>